# xmcd CD database file
#
# Track frame offsets:
#	150
#	14788
#	27922
#	42869
#	56965
#	70362
#	86326
#	104168
#	117053
#	138569
#	153930
#	173612
#	189340
#	206088
#	221509
#	245813
#	271581
#
# Disc length: 3790 seconds
#
# Revision: 1
# Processed by: cddbd v1.5.2PL0 Copyright (c) Steve Scherf et al.
# Submitted via: CDex 1.70beta2
#
DISCID=f70ecc11
DTITLE=Even Cowgirls Get The Blues - La Nouvelle Scène Féminine Folk Indé Americana
DYEAR=2007
DGENRE=Folk
TTITLE0=Sera Cahoone - Nowhere To Be Found
TTITLE1=Alela Diane - The Pirate's Gospel
TTITLE2=Dawn Landes - Twilight
TTITLE3=Haley Bonar - Daisy Girls
TTITLE4=Sarah White - White Light
TTITLE5=Carrie Bell - Rise Off Our Feet
TTITLE6=Pink Nasty - BTK Blues
TTITLE7=Liz Durett - Knives At The Walls
TTITLE8=Lauren Hoffman - As The Stars
TTITLE9=The Innocence Mission - Brotherhood Of Man
TTITLE10=Mariee Sioux - Wizard Flurry Home
TTITLE11=Bosque Brown - Fine Lines
TTITLE12=Emily Loizereau - Make You Feel My Love
TTITLE13=Kelly McRae - Johnny Cash
TTITLE14=Jesse Sykes And The Sweet Hereafter - How Will We Know
TTITLE15=Oh Susanna - Billy IV
TTITLE16=Laura Gibson - Country, Country
EXTD=YEAR: 2007
EXTT0=
EXTT1=
EXTT2=
EXTT3=
EXTT4=
EXTT5=
EXTT6=
EXTT7=
EXTT8=
EXTT9=
EXTT10=
EXTT11=
EXTT12=
EXTT13=
EXTT14=
EXTT15=
EXTT16=
PLAYORDER=
